HIERARCHY
ROOT Pelvis
{
	OFFSET 0.000000 0.000000 0.000000
	CHANNELS 6 Xposition Yposition Zposition Xrotation Yrotation Zrotation
	JOINT LeftUpLeg_virtual
	{
		OFFSET 0.000000 0.000000 0.000000
		CHANNELS 3 Xrotation Yrotation Zrotation
		JOINT LeftUpLeg
		{
			OFFSET 18.735201 -5.666702 -4.541200
			CHANNELS 3 Xrotation Yrotation Zrotation
			JOINT LeftLeg
			{
				OFFSET -0.021200 -31.938179 0.493100
				CHANNELS 3 Xrotation Yrotation Zrotation
				JOINT LeftFoot
				{
					OFFSET 0.021200 -31.938179 -4.336299
					CHANNELS 3 Xrotation Yrotation Zrotation
					JOINT LeftToeBase
					{
						OFFSET 0.943001 -26.722000 15.023500
						CHANNELS 3 Xrotation Yrotation Zrotation
						End Site
						{
							OFFSET 0 0 0
						}
					}
				}
			}
		}
	}
	JOINT RightUpLeg_virtual
	{
		OFFSET 0.000000 0.000000 0.000000
		CHANNELS 3 Xrotation Yrotation Zrotation
		JOINT RightUpLeg
		{
			OFFSET -18.735201 -5.666702 -4.541200
			CHANNELS 3 Xrotation Yrotation Zrotation
			JOINT RightLeg
			{
				OFFSET 0.018946 -31.938133 0.493100
				CHANNELS 3 Xrotation Yrotation Zrotation
				JOINT RightFoot
				{
					OFFSET -0.018946 -31.938126 -4.336299
					CHANNELS 3 Xrotation Yrotation Zrotation
					JOINT RightToeBase
					{
						OFFSET -0.943001 -26.722004 15.023500
						CHANNELS 3 Xrotation Yrotation Zrotation
						End Site
						{
							OFFSET 0 0 0
						}
					}
				}
			}
		}
	}
	JOINT Hips_virtual
	{
		OFFSET 0.000000 0.000000 0.000000
		CHANNELS 3 Xrotation Yrotation Zrotation
		JOINT Hips
		{
			OFFSET -0.000000 -0.000000 -0.000000
			CHANNELS 3 Xrotation Yrotation Zrotation
			JOINT Spine
			{
				OFFSET 0.000000 10.199997 -0.299500
				CHANNELS 3 Xrotation Yrotation Zrotation
				JOINT Spine1
				{
					OFFSET 0.000000 11.900002 -1.516600
					CHANNELS 3 Xrotation Yrotation Zrotation
					JOINT Spine2
					{
						OFFSET 0.000000 13.600006 -2.842500
						CHANNELS 3 Xrotation Yrotation Zrotation
						JOINT Neck_virtual
						{
							OFFSET 0.000000 0.000000 0.000000
							CHANNELS 3 Xrotation Yrotation Zrotation
							JOINT Neck
							{
								OFFSET 0.000000 9.624100 -2.890100
								CHANNELS 3 Xrotation Yrotation Zrotation
								JOINT Head
								{
									OFFSET 0.000000 14.068802 -1.351900
									CHANNELS 3 Xrotation Yrotation Zrotation
									End Site
									{
										OFFSET 0 0 0
									}
								}
							}
						}
						JOINT LeftShoulder_virtual
						{
							OFFSET 0.000000 0.000000 0.000000
							CHANNELS 3 Xrotation Yrotation Zrotation
							JOINT LeftShoulder
							{
								OFFSET 15.263000 10.923401 -0.547700
								CHANNELS 3 Xrotation Yrotation Zrotation
								JOINT LeftArm
								{
									OFFSET 25.438599 -2.830597 -13.032500
									CHANNELS 3 Xrotation Yrotation Zrotation
									JOINT LeftForeArm
									{
										OFFSET 29.960503 0.000000 0.000000
										CHANNELS 3 Xrotation Yrotation Zrotation
										JOINT LeftHand
										{
											OFFSET 27.849251 0.000000 0.000000
											CHANNELS 3 Xrotation Yrotation Zrotation
											End Site
											{
												OFFSET 0 0 0
											}
										}
									}
								}
							}
						}
						JOINT RightShoulder_virtual
						{
							OFFSET 0.000000 0.000000 0.000000
							CHANNELS 3 Xrotation Yrotation Zrotation
							JOINT RightShoulder
							{
								OFFSET -15.263000 10.923401 -0.547700
								CHANNELS 3 Xrotation Yrotation Zrotation
								JOINT RightArm
								{
									OFFSET -25.438599 -2.830597 -13.032500
									CHANNELS 3 Xrotation Yrotation Zrotation
									JOINT RightForeArm
									{
										OFFSET -29.960503 0.000000 0.000000
										CHANNELS 3 Xrotation Yrotation Zrotation
										JOINT RightHand
										{
											OFFSET -27.849251 0.000000 0.000000
											CHANNELS 3 Xrotation Yrotation Zrotation
											End Site
											{
												OFFSET 0 0 0
											}
										}
									}
								}
							}
						}
					}
				}
			}
		}
	}
}
MOTION
Frames: 12
Frame Time: 0.03333333
-68.325722 25.818542 9.739450 0.000000 0.000000 0.000000 -42.381276 32.470890 57.566364 -68.548181 -8.960389 56.343955 53.754429 0.354866 -0.492196 -1.612566 0.390362 -6.372747 0.000000 0.000000 0.000000 -40.248840 14.013825 58.235839 -68.785305 -17.674330 24.507979 92.268944 9.433325 1.500488 21.424172 8.574895 24.540405 0.000000 0.000000 0.000000 -10.136150 3.153621 17.524566 -54.053345 5.588991 76.521819 23.297543 -2.018138 -4.152542 11.385989 -0.941317 -1.571793 0.000000 0.000000 0.000000 20.433442 0.393004 -4.558534 9.325519 1.876038 -2.528594 0.000000 0.000000 0.000000 16.678110 0.969845 -2.054526 5.640899 1.509356 -8.739495 31.181873 -2.825982 -0.670549 29.180798 -21.641992 13.157399 0.000000 0.000000 0.000000 14.408767 0.006319 -1.338008 9.698184 9.120599 -16.835952 27.246246 -2.057981 -8.896412 17.299804 42.293921 -16.657180 0.000000 0.000000 0.000000 
-69.855598 23.181721 9.756357 0.000000 0.000000 0.000000 -43.547432 30.671081 59.246065 -69.502202 -10.385443 57.035881 54.785576 3.463243 -0.208758 -0.434337 3.223756 -3.650020 0.000000 0.000000 0.000000 -42.100791 13.929343 60.573621 -70.159047 -18.176119 24.853931 89.520913 6.285400 1.271000 20.616620 5.458820 20.562319 0.000000 0.000000 0.000000 -11.160860 0.579257 18.254802 -54.553360 3.020828 78.425147 23.534059 -2.749049 -3.352646 11.225679 -1.324820 -1.004320 0.000000 0.000000 0.000000 20.477117 -0.241559 -4.183910 9.459353 1.497391 -2.458843 0.000000 0.000000 0.000000 16.305745 0.637183 -1.819473 5.578545 1.115808 -9.327357 33.708759 -4.708358 -1.240600 31.697552 -23.896564 14.180929 0.000000 0.000000 0.000000 13.220157 -0.338944 -0.836154 8.540373 8.865777 -15.172393 28.852481 -2.356518 -7.555458 17.634941 41.005468 -16.563559 0.000000 0.000000 0.000000 
-70.699928 21.361065 10.143026 0.000000 0.000000 0.000000 -45.727075 31.659972 61.944973 -70.003271 -10.773905 58.013851 55.587368 6.628381 -0.454903 0.490190 6.465378 -1.585823 0.000000 0.000000 0.000000 -43.680310 14.125138 62.393600 -71.299416 -18.316780 24.733293 86.582408 3.024842 0.864055 19.529210 2.257179 16.335391 0.000000 0.000000 0.000000 -12.201841 -3.010481 18.549339 -53.790233 -0.318739 78.674490 23.233213 -3.261613 -2.345503 10.748022 -1.582921 -0.304290 0.000000 0.000000 0.000000 19.831234 -0.765346 -3.818853 9.257233 1.149636 -2.382937 0.000000 0.000000 0.000000 15.481457 0.394249 -1.604370 5.162051 0.830263 -9.893851 32.728139 -6.735583 -2.346093 33.000448 -26.759600 15.059409 0.000000 0.000000 0.000000 11.746091 -0.484833 -0.421990 7.236838 9.186898 -13.662119 27.482127 -1.289129 -5.929367 16.965261 41.002780 -16.093828 0.000000 0.000000 0.000000 
-71.874443 20.206802 10.968451 0.000000 0.000000 0.000000 -48.028265 33.265897 64.368850 -70.455095 -10.737893 58.694356 56.092256 9.777033 -0.958775 1.170055 9.886597 0.130941 0.000000 0.000000 0.000000 -44.996839 15.238166 65.018592 -71.328007 -18.565610 25.746705 83.905104 1.070925 0.812945 18.620125 0.206236 14.116340 0.000000 0.000000 0.000000 -13.582417 -4.981327 18.767263 -54.370645 -1.952687 79.038894 22.071316 -3.350474 -1.485644 9.789109 -1.616187 0.346012 0.000000 0.000000 0.000000 18.546798 -1.197815 -2.966115 8.730203 0.831610 -2.024150 0.000000 0.000000 0.000000 14.308999 0.257305 -1.417853 4.501379 0.989204 -10.388083 28.338515 -7.942976 -4.584895 32.093590 -28.624869 14.704824 0.000000 0.000000 0.000000 10.758589 -0.498689 -0.132818 6.551191 9.957447 -12.595518 27.108264 0.569910 -4.282957 16.996642 42.038414 -16.001875 0.000000 0.000000 0.000000 
-73.063103 19.034370 10.898966 0.000000 0.000000 0.000000 -47.289826 32.816074 64.589069 -69.822066 -10.931205 59.268871 56.754685 12.073921 -1.020414 2.747275 12.499230 1.939548 0.000000 0.000000 0.000000 -46.722138 16.811770 67.958552 -71.449031 -18.598981 26.550735 82.386930 -0.429697 0.811779 18.189972 -1.385188 12.515460 0.000000 0.000000 0.000000 -15.099583 -4.802410 19.223258 -56.644524 -1.600855 81.034894 20.920123 -2.900037 -0.443086 8.837432 -1.375843 1.111775 0.000000 0.000000 0.000000 16.275340 -1.817203 -1.828301 7.710518 0.373186 -1.499456 0.000000 0.000000 0.000000 13.146999 0.240645 -1.018996 3.899269 1.476885 -9.862474 23.763577 -7.576738 -4.751275 31.066986 -29.274932 15.042815 0.000000 0.000000 0.000000 10.427019 -0.552561 0.190224 6.537847 10.419493 -11.438921 29.378761 2.152043 -1.718476 18.059478 42.839520 -15.999035 0.000000 0.000000 0.000000 
-75.259460 17.978630 10.926758 0.000000 0.000000 0.000000 -45.434555 30.539541 63.731676 -69.280467 -11.678977 59.559352 57.964195 13.694565 -1.008091 5.063737 14.584991 3.453895 0.000000 0.000000 0.000000 -48.197991 18.641277 70.295187 -71.172142 -18.375724 27.327807 81.013222 -1.320788 1.136716 18.030922 -2.505642 12.058733 0.000000 0.000000 0.000000 -16.382164 -4.312298 19.622724 -58.574145 -0.421088 83.218116 20.172901 -2.243738 0.568005 8.123473 -1.032133 1.848835 0.000000 0.000000 0.000000 14.327584 -2.261498 -0.813093 6.821242 0.043237 -1.032088 0.000000 0.000000 0.000000 10.558458 0.168944 -0.528204 1.982896 1.791250 -8.887119 8.693439 -7.357320 -4.433324 26.158294 -32.211015 15.591102 0.000000 0.000000 0.000000 10.102707 -0.751433 0.787775 6.376103 10.278856 -9.144787 30.781450 2.791894 2.597414 18.202294 42.424952 -14.818112 0.000000 0.000000 0.000000 
-78.014923 17.664680 11.046753 0.000000 0.000000 0.000000 -44.896585 29.158207 63.809710 -69.208599 -12.309015 59.873602 60.247801 15.167169 -1.499798 7.667082 16.675485 4.182778 0.000000 0.000000 0.000000 -48.762155 19.273141 69.295951 -71.934200 -17.593992 25.966938 78.437606 -2.455180 1.515327 16.744658 -4.022784 11.491425 0.000000 0.000000 0.000000 -17.669701 -2.516034 19.879433 -62.024429 2.350726 85.634993 19.537177 -1.273546 1.404387 7.495236 -0.520116 2.495256 0.000000 0.000000 0.000000 12.015778 -2.567387 0.083772 5.747747 -0.191884 -0.599135 0.000000 0.000000 0.000000 8.633815 0.100900 0.065872 0.630116 1.954437 -7.218151 -1.465204 -5.648257 -0.649710 20.571666 -30.112706 15.354964 0.000000 0.000000 0.000000 9.090199 -0.845986 1.300353 5.546519 10.526215 -7.030598 26.799927 3.897343 7.007791 15.904584 42.301605 -12.486763 0.000000 0.000000 0.000000 
-80.668213 17.188164 10.679728 0.000000 0.000000 0.000000 -46.964534 29.608505 65.007978 -70.425855 -12.591221 59.700976 61.490233 16.528073 -2.388991 8.723067 18.650453 4.020779 0.000000 0.000000 0.000000 -48.618567 19.708764 67.569429 -72.458082 -16.722934 24.377428 75.822114 -3.573902 2.064726 15.469576 -5.612509 11.261606 0.000000 0.000000 0.000000 -18.807494 -3.145216 19.564942 -64.133700 2.874526 85.573651 18.445218 -0.980541 2.008595 6.625721 -0.351687 2.968423 0.000000 0.000000 0.000000 9.598437 -2.835134 0.536360 4.613519 -0.375387 -0.395991 0.000000 0.000000 0.000000 7.786134 0.124826 0.604116 0.254098 2.460331 -5.577365 -2.730927 -4.769825 3.395562 20.231831 -28.577131 16.918464 0.000000 0.000000 0.000000 8.012625 -0.944342 1.661050 4.686165 10.740234 -5.536886 21.323765 4.153400 11.760591 13.023316 41.852145 -9.842627 0.000000 0.000000 0.000000 
-83.224884 17.048622 10.367224 0.000000 0.000000 0.000000 -49.276113 30.674407 66.803068 -71.337863 -12.683556 59.867646 63.165924 17.207026 -3.402548 10.152636 19.913944 3.074927 0.000000 0.000000 0.000000 -48.796948 20.204540 66.106082 -73.099813 -15.849961 22.934921 73.169494 -4.546198 2.679816 14.149411 -7.087019 11.347233 0.000000 0.000000 0.000000 -19.831939 -4.447165 18.988571 -65.180386 2.940470 83.107433 17.124044 -0.978696 2.541838 5.661524 -0.326212 3.380092 0.000000 0.000000 0.000000 7.169714 -2.993978 1.280629 3.484434 -0.482286 -0.013151 0.000000 0.000000 0.000000 6.710714 -0.045943 1.164122 -0.381729 2.194217 -3.754410 -5.911894 -6.481017 7.162851 19.905577 -30.473511 19.226419 0.000000 0.000000 0.000000 6.892659 -1.198484 1.931648 3.775989 10.316027 -4.305557 15.273531 2.836301 16.464743 9.805714 40.159695 -7.011377 0.000000 0.000000 0.000000 
-85.537376 17.312469 9.358435 0.000000 0.000000 0.000000 -51.955265 31.513328 68.659589 -72.383271 -12.911960 59.959116 64.597026 17.014544 -4.341681 11.403836 20.159160 1.405079 0.000000 0.000000 0.000000 -49.786041 21.216794 65.637483 -73.897203 -14.971940 21.920727 70.887542 -5.277475 3.248209 12.927758 -8.266517 11.636665 0.000000 0.000000 0.000000 -21.155707 -4.842368 18.677036 -67.521010 3.357224 81.678250 15.912167 -0.920119 2.899449 4.787763 -0.265664 3.687011 0.000000 0.000000 0.000000 5.533938 -3.099235 2.064705 2.746058 -0.554851 0.402522 0.000000 0.000000 0.000000 6.617348 -0.009456 1.687813 -0.129901 2.526645 -1.834237 -1.695244 -4.559043 12.939326 21.457893 -26.431869 21.182493 0.000000 0.000000 0.000000 6.005072 -1.341603 2.075020 3.142837 10.176619 -3.502522 9.360627 1.563644 20.157772 6.918468 38.957480 -4.672121 0.000000 0.000000 0.000000 
-87.770378 17.464455 8.802841 0.000000 0.000000 0.000000 -54.510046 32.256149 70.165939 -73.422758 -13.068447 59.858528 65.576209 16.303173 -4.949181 12.385994 19.670409 -0.232851 0.000000 0.000000 0.000000 -50.856192 22.238558 65.448539 -74.609168 -14.195721 21.125341 69.033139 -5.891075 3.839715 11.923146 -9.308455 12.092874 0.000000 0.000000 0.000000 -22.307555 -4.607664 18.677484 -69.748758 3.732880 81.297378 14.799724 -0.942624 3.304619 3.982233 -0.251694 4.012582 0.000000 0.000000 0.000000 4.507460 -3.160778 2.533604 2.285496 -0.595453 0.655311 0.000000 0.000000 0.000000 6.876854 0.018639 2.219593 0.384864 2.714644 0.248400 5.715424 -1.134632 18.957904 24.050397 -21.115070 23.000683 0.000000 0.000000 0.000000 5.177473 -1.471993 2.178353 2.558327 10.066824 -2.875007 2.987434 0.078895 23.348279 4.010635 38.345864 -2.523859 0.000000 0.000000 0.000000 
-90.100586 17.921535 8.784855 0.000000 0.000000 0.000000 -56.547102 32.256333 70.900553 -74.619250 -13.393437 59.427645 65.864798 15.033269 -5.222902 12.878208 18.380763 -1.927077 0.000000 0.000000 0.000000 -51.539146 23.297319 65.073774 -74.978682 -13.431257 20.392559 67.058305 -6.389186 4.330542 10.805399 -10.186744 12.531138 0.000000 0.000000 0.000000 -23.521126 -3.749980 18.874879 -71.785445 4.150519 81.194946 13.650222 -0.913500 3.772413 3.182415 -0.219159 4.352149 0.000000 0.000000 0.000000 4.100234 -3.132650 2.913544 2.135821 -0.598334 0.872242 0.000000 0.000000 0.000000 6.772928 0.010118 2.714484 0.541142 2.621566 2.298019 10.781105 2.189846 23.600662 25.764423 -16.696104 24.283023 0.000000 0.000000 0.000000 4.278636 -1.666959 2.169661 1.924917 9.594106 -2.734220 -3.922448 -2.727705 24.889185 0.974650 36.619916 -0.808380 0.000000 0.000000 0.000000 
